HIERARCHY
ROOT Hips
{
	OFFSET -1.789003 -1.627194 -1.929847
	CHANNELS 6 Xposition Yposition Zposition Zrotation Yrotation Xrotation
	JOINT LHipJoint
	{
		OFFSET -2.256987 -2.091851 -2.202384
		CHANNELS 3 Zrotation Yrotation Xrotation
		JOINT LeftUpLeg
		{
			OFFSET -2.218545 -2.471492 -2.752563
			CHANNELS 3 Zrotation Yrotation Xrotation
			JOINT LeftLeg
			{
				OFFSET -2.767411 -2.364558 -2.259553
				CHANNELS 3 Zrotation Yrotation Xrotation
				JOINT LeftFoot
				{
					OFFSET -1.334268 -1.646484 -1.423268
					CHANNELS 3 Zrotation Yrotation Xrotation
					JOINT LeftToeBase
					{
						OFFSET -1.080569 -0.788081 -1.004078
						CHANNELS 3 Zrotation Yrotation Xrotation
						End Site
						{
							OFFSET 0.000000 0.000000 0.000000
						}
					}
				}
			}
		}
	}
	JOINT RHipJoint
	{
		OFFSET -0.553581 -1.291985 -1.022288
		CHANNELS 3 Zrotation Yrotation Xrotation
		JOINT RightUpLeg
		{
			OFFSET -0.066471 -0.002219 0.049141
			CHANNELS 3 Zrotation Yrotation Xrotation
			JOINT RightLeg
			{
				OFFSET 0.004389 -0.071507 -0.156402
				CHANNELS 3 Zrotation Yrotation Xrotation
				JOINT RightFoot
				{
					OFFSET 0.027550 -0.109326 -0.866249
					CHANNELS 3 Zrotation Yrotation Xrotation
					JOINT RightToeBase
					{
						OFFSET -0.407828 -0.653196 -1.057632
						CHANNELS 3 Zrotation Yrotation Xrotation
						End Site
						{
							OFFSET 0.000000 0.000000 0.000000
						}
					}
				}
			}
		}
	}
	JOINT LowerBack
	{
		OFFSET -0.849213 -1.399991 -1.222396
		CHANNELS 3 Zrotation Yrotation Xrotation
		JOINT Spine
		{
			OFFSET -1.365693 -1.000728 -0.709444
			CHANNELS 3 Zrotation Yrotation Xrotation
			JOINT Spine1
			{
				OFFSET -1.221256 -1.661238 -1.649822
				CHANNELS 3 Zrotation Yrotation Xrotation
				JOINT Neck
				{
					OFFSET -2.039468 -1.397539 -2.343361
					CHANNELS 3 Zrotation Yrotation Xrotation
					JOINT Neck1
					{
						OFFSET -1.566386 -2.326656 -1.955153
						CHANNELS 3 Zrotation Yrotation Xrotation
						JOINT Head
						{
							OFFSET -1.464905 -1.533737 -1.697851
							CHANNELS 3 Zrotation Yrotation Xrotation
							End Site
							{
								OFFSET 0.000000 0.000000 0.000000
							}
						}
					}
				}
				JOINT LeftShoulder
				{
					OFFSET -1.413413 -1.807632 -1.865894
					CHANNELS 3 Zrotation Yrotation Xrotation
					JOINT LeftArm
					{
						OFFSET -2.005966 -2.874942 -2.561301
						CHANNELS 3 Zrotation Yrotation Xrotation
						JOINT LeftForeArm
						{
							OFFSET -2.059181 -1.567439 -1.484472
							CHANNELS 3 Zrotation Yrotation Xrotation
							JOINT LeftHand
							{
								OFFSET -2.003903 -2.911794 -2.925333
								CHANNELS 3 Zrotation Yrotation Xrotation
								JOINT LeftFingerBase
								{
									OFFSET -3.088362 -2.602623 -2.568943
									CHANNELS 3 Zrotation Yrotation Xrotation
									JOINT LeftHandIndex1
									{
										OFFSET -2.432590 -3.085542 -2.945885
										CHANNELS 3 Zrotation Yrotation Xrotation
										End Site
										{
											OFFSET 0.000000 0.000000 0.000000
										}
									}
								}
								JOINT LThumb
								{
									OFFSET -3.273076 -2.501151 -2.194695
									CHANNELS 3 Zrotation Yrotation Xrotation
									End Site
									{
										OFFSET 0.000000 0.000000 0.000000
									}
								}
							}
						}
					}
				}
				JOINT RightShoulder
				{
					OFFSET -1.742317 -1.839404 -1.977647
					CHANNELS 3 Zrotation Yrotation Xrotation
					JOINT RightArm
					{
						OFFSET -2.005769 -1.910324 -1.667748
						CHANNELS 3 Zrotation Yrotation Xrotation
						JOINT RightForeArm
						{
							OFFSET -1.849402 -1.963553 -1.917791
							CHANNELS 3 Zrotation Yrotation Xrotation
							JOINT RightHand
							{
								OFFSET -1.633766 -1.373765 -1.368065
								CHANNELS 3 Zrotation Yrotation Xrotation
								JOINT RightFingerBase
								{
									OFFSET -1.065175 -1.121592 -1.344143
									CHANNELS 3 Zrotation Yrotation Xrotation
									JOINT RightHandIndex1
									{
										OFFSET -0.879570 -1.055917 -0.808335
										CHANNELS 3 Zrotation Yrotation Xrotation
										End Site
										{
											OFFSET 0.000000 0.000000 0.000000
										}
									}
								}
								JOINT RThumb
								{
									OFFSET -0.832962 -0.356634 -0.336727
									CHANNELS 3 Zrotation Yrotation Xrotation
									End Site
									{
										OFFSET 0.104135 0.138344 -0.149541
									}
								}
							}
						}
					}
				}
			}
		}
	}
}
MOTION
Frames: 11
Frame Time: 0.008333
1.450728 17.557940 -14.539950 -5.167935 -6.382104 0.823306 -5.990211 -1.910668 -4.520320 -30.823254 -17.807449 -32.069183 -1.067889 6.504017 22.476019 -1.225947 -0.501410 11.580781 0.903903 0.525018 0.161295 3.143952 0.420861 1.785608 25.235727 10.297709 -12.770985 1.258785 -5.446037 39.949596 1.515733 0.104379 7.383064 0.262969 3.227836 7.437543 1.476740 2.060673 4.583763 2.792913 1.600694 -1.409855 2.694294 1.923927 -2.803617 -4.953329 -3.286908 -14.014420 4.256135 -2.063641 15.384638 3.453269 0.002113 10.946749 1.284633 1.481158 -0.139759 -82.008530 9.916740 20.139696 14.982994 -27.344614 -7.429531 -0.832702 -0.794044 -11.601840 13.374694 -8.368677 -7.664534 -7.125000 0.000000 0.000000 -24.127394 19.655857 -21.081276 -0.470610 -2.012252 -1.216502 74.805656 -11.270096 -2.027909 -17.799957 21.431545 -9.312447 0.214068 -0.638054 -4.553257 -20.084295 1.880194 0.815093 7.125000 0.000000 0.000000 36.180931 -15.331396 20.340931
1.112077 17.477791 -17.251532 -5.760444 -7.109684 0.327318 -7.042884 -2.493732 -4.739187 -32.817581 -19.129990 -38.280312 -3.040246 4.419092 16.511183 -1.069693 -0.870794 12.926429 1.108153 0.236254 -4.749935 2.842893 0.295691 1.099926 23.366274 6.687635 -18.450693 -0.685032 -8.316057 26.160511 -2.075248 -9.642484 -5.588059 -0.909765 -0.832935 -6.449118 -1.773967 -0.175071 1.115637 1.269445 -1.191203 -4.638913 0.393724 0.276580 -4.862482 -5.437375 -3.090395 -13.254195 4.633399 -0.694061 16.467436 4.544639 0.748472 12.362015 2.327154 1.690376 -0.300404 -82.646103 7.242192 16.525236 15.099755 -28.499798 -6.612442 -0.765927 -0.457061 -7.162052 14.119326 -7.887868 -9.122744 -7.125000 0.000000 0.000000 -30.507521 11.877092 -29.973597 -2.345193 -2.776834 -1.583229 71.917572 -13.390810 -3.248834 -19.829483 21.336039 -10.376860 -0.094393 -0.954657 -10.910692 -34.399292 -4.194333 -12.653921 7.125000 0.000000 0.000000 17.737671 -25.056231 -18.488985
0.826279 17.552519 -15.655757 -6.645937 -8.309075 -0.499724 -7.254605 -3.973598 -6.087385 -37.266407 -24.216509 -47.076641 -4.595266 2.189775 10.013077 -1.456281 -4.741331 12.244407 0.965137 1.449884 1.171444 5.369865 1.330190 4.225825 30.923271 18.316259 2.620068 2.691321 -4.642883 37.783329 1.177444 -0.417397 9.557967 0.325034 3.369067 2.595551 -0.485297 -0.351372 1.338023 1.110409 -1.376616 -4.950160 0.083313 0.629626 -2.954765 -3.968583 -2.653933 -12.081763 4.994884 0.270156 16.434217 3.610890 -0.416289 9.696708 -0.730552 -0.472682 -0.807791 -85.327339 3.419324 14.543209 15.269590 -27.956099 -3.320577 -0.505705 -0.088024 -4.897151 14.163995 -7.150124 -8.046610 -7.125000 0.000000 0.000000 -23.478901 19.078911 -17.279922 -1.646411 -1.906048 -1.518167 73.684235 -6.831769 9.967004 -15.140718 24.013811 -7.028033 0.113142 -0.190259 -3.114675 -33.121040 0.909774 -10.579361 7.125000 0.000000 0.000000 32.431034 -14.915848 -0.037480
0.927892 17.654078 -7.918276 -5.016217 -5.398632 2.258421 -3.935682 -1.989078 -4.012950 -32.971588 -20.865177 -43.528328 -3.642896 4.281571 12.777782 -0.912194 0.504983 16.230011 1.261459 3.203183 4.506201 4.828806 0.839399 5.239318 32.920998 23.348793 10.317356 3.652337 -2.056829 47.351509 4.436869 8.888283 19.515285 1.015149 5.880270 8.227221 1.734898 1.719278 4.857917 2.544723 2.973211 -0.441236 3.203240 3.116628 -0.662178 -2.459061 -1.086133 -8.214722 6.490973 3.333570 21.159958 5.693532 1.287880 14.173409 3.009094 2.265902 0.006348 -82.059189 11.505672 24.148441 19.956657 -23.826504 0.873096 -0.357620 0.549672 0.282939 15.811116 -5.682207 -2.007011 -7.125000 0.000000 0.000000 -10.392244 33.317036 4.635891 1.243404 -0.679655 -0.882134 78.722519 -1.292120 17.423851 -11.561268 26.580116 -3.623779 0.580099 0.270516 1.196897 -2.845835 16.766943 15.222058 7.125000 0.000000 0.000000 63.111511 -2.141388 16.024906
1.027530 17.609011 -9.771124 -4.356987 -6.607179 3.035068 -4.055116 -1.048573 -3.029097 -28.610056 -16.103889 -35.962120 -3.216555 4.118515 15.933072 -0.317509 8.833353 19.050207 1.632985 1.313635 1.299228 4.989589 0.420147 5.770325 35.596283 24.787655 13.830494 4.039011 -1.275823 56.465363 8.381161 22.469770 28.338863 1.434075 7.949944 4.671741 1.003887 1.081960 3.882344 2.550784 3.148598 -0.845134 2.292444 1.723956 -3.277796 -1.523201 -0.366311 -7.071484 7.047028 2.948325 20.414394 5.478635 1.388032 14.905663 4.540458 2.857121 0.010288 -81.185112 13.042867 32.928654 24.403326 -19.377102 2.304291 -0.136754 1.085206 7.964111 18.201097 -1.007258 2.003762 -7.125000 0.000000 0.000000 -24.267393 16.262165 -18.195089 -2.204088 -1.713757 -1.132897 77.742447 -2.945376 15.275558 -13.041950 25.426256 -5.240520 0.305118 -0.069024 -1.628866 -9.009145 7.252672 14.151408 7.125000 0.000000 0.000000 70.956390 3.611515 30.094240
1.194938 17.663889 -7.157876 -4.344932 -7.360189 1.654290 -5.418952 -1.225593 -3.657435 -28.636106 -15.489497 -36.105579 -2.957340 5.425681 21.021519 -0.164326 7.091097 16.649059 1.540412 0.901988 2.923806 3.151474 -0.260987 6.161913 35.763378 24.975296 12.388935 3.614257 -1.063493 58.310814 9.140958 23.029751 28.697323 2.210738 10.693008 17.485296 3.683415 2.839341 7.542995 3.979457 6.010872 1.090735 4.274100 3.348991 0.429569 0.516470 1.340865 -4.811046 8.318168 5.017909 21.586761 6.775144 2.347049 17.144501 6.144614 4.503417 0.588111 -79.416756 17.610960 36.281898 23.891701 -18.720390 1.812119 -0.048001 0.957636 7.120084 18.898344 -3.123022 1.433750 -7.125000 0.000000 0.000000 -33.717999 13.337021 -25.366154 -2.073690 -1.321244 -1.364251 74.820847 -8.737143 2.186568 -16.395519 21.982992 -6.687043 0.130019 -0.175116 -2.989653 -26.258858 -1.244146 -12.571511 7.125000 0.000000 0.000000 26.336159 -18.515682 -8.209199
0.551419 17.656410 -8.521275 -5.404439 -8.866150 -0.715659 -7.413771 -1.773523 -4.617654 -30.384583 -17.800671 -41.841209 -5.240873 3.487226 14.591208 -1.206747 2.093426 4.409825 0.352780 -2.234365 -6.634665 0.799133 -0.769980 5.098167 33.077015 20.448345 6.607891 0.585784 -4.808546 42.323532 4.738316 15.657462 16.483444 0.372457 1.999896 -3.724872 0.604971 2.677256 6.223656 3.906451 6.921830 2.235949 5.094056 3.489140 -0.144682 -1.949290 0.557950 -6.508078 7.777418 3.810961 19.253538 4.583107 0.539848 14.547852 3.179636 1.592628 -0.134395 -83.387138 9.162439 34.227936 22.745644 -19.615467 1.137596 -0.260604 0.678711 14.265735 25.513475 8.174922 7.959113 -7.125000 0.000000 0.000000 -12.600933 24.351332 -8.894111 -0.919714 -1.459582 -1.138235 73.150009 -12.465857 -8.289381 -24.251991 15.149825 -11.516418 -0.414315 -0.897973 -10.243451 -38.799072 -3.959033 4.189183 7.125000 0.000000 0.000000 5.342113 -27.965834 -15.287571
1.210778 17.835581 0.308927 -4.305637 -7.675825 1.631877 -6.232906 -1.410654 -3.676096 -27.072392 -12.696979 -29.741652 -2.263630 6.933040 25.680944 0.562101 10.937565 9.164080 0.698893 -0.856315 -0.230151 2.520848 -0.170448 4.565920 32.261948 17.433514 -1.169744 0.935373 -4.767573 42.500683 4.955937 17.983562 21.074028 0.748622 1.899506 -7.220207 -0.081501 2.462634 4.981216 3.031936 5.995514 0.319541 3.593235 2.400059 -0.920367 -3.275906 0.303355 -6.909626 7.668335 5.181968 21.157383 6.991196 1.646071 16.689365 6.241506 5.012739 0.963255 -74.407135 25.555794 63.454277 38.514915 -10.395475 11.210436 0.437161 2.314060 34.993423 36.614967 24.161839 19.021067 -7.125000 0.000000 0.000000 23.703400 52.586510 29.755291 2.953257 0.941462 -0.148982 79.866943 -6.664264 7.382730 -13.841883 21.715982 -6.049770 0.324873 -0.110647 2.302956 -18.514574 -3.720599 20.894232 7.125000 0.000000 0.000000 4.259883 -25.062786 17.318039
1.729559 18.122086 12.210178 -0.298914 -1.231021 8.524268 -0.733467 0.138978 -1.267133 -23.950928 -7.826703 -20.712015 0.742079 11.041387 39.915840 2.545730 19.638050 13.566750 1.266105 2.817964 8.195269 7.414761 2.492229 7.902225 43.333130 27.818771 7.078926 2.040295 -3.456917 51.024063 5.694820 13.815513 14.595449 -0.266585 -0.315558 -2.118987 0.653257 2.088419 3.785833 1.740064 3.662870 -1.055991 1.902298 1.549263 -1.786514 -1.987420 2.365916 -4.863385 8.057499 5.596768 23.660757 5.292449 0.309028 13.907862 4.157580 4.516749 0.890457 -74.816612 25.773556 65.981583 42.299023 -13.032615 7.225903 0.410265 1.707237 27.729490 32.857559 16.151674 10.876328 -7.125000 0.000000 0.000000 17.582647 43.027187 18.220840 2.199298 0.059969 -0.640083 77.416389 -11.428755 1.744686 -16.652056 18.987045 -2.787094 0.855178 0.678746 13.889649 12.160526 10.998974 38.360943 7.125000 0.000000 0.000000 5.958155 -28.454605 -1.009768
1.715507 18.162363 15.855909 -0.199957 -1.303631 8.377582 -0.530462 0.088352 -0.818757 -22.230896 -7.851215 -22.975922 -1.190756 8.925176 33.366398 1.090977 15.035813 8.821102 0.850299 0.850730 -0.631589 4.156253 0.968645 5.212283 36.821297 22.893160 -1.315130 0.880607 -4.662977 47.073299 3.891570 9.224491 11.135890 -0.653973 -1.313228 -5.778882 -0.428962 1.473441 4.006193 1.983748 3.884125 0.210949 3.194368 2.346029 0.354914 -1.505131 2.029320 -5.056071 7.870257 5.189078 24.406498 4.715487 0.317327 13.928917 3.966590 4.554181 0.848564 -73.713928 25.885635 69.591957 44.791885 -9.359912 10.243725 0.656589 1.773659 27.829254 33.941162 20.613707 12.956556 -7.125000 0.000000 0.000000 20.337391 45.118679 23.157383 1.818347 -0.003449 -0.664216 76.569931 -14.561537 -2.910070 -16.720861 18.423138 -4.785065 0.535099 0.229625 8.034630 1.206429 5.675264 25.232138 7.125000 0.000000 0.000000 2.047671 -28.666716 11.483871
1.686330 18.123762 12.257833 1.205062 2.563344 12.150211 2.060116 1.501549 -0.169539 -19.810884 -3.110987 -11.163990 3.292692 11.968452 40.432770 2.446339 22.767899 15.916658 1.541538 4.263522 9.720233 4.421640 1.322211 4.776679 37.587685 26.982040 2.869812 2.122242 -2.234031 57.513031 5.758114 12.736675 21.974710 1.147619 4.530290 11.509987 2.218858 2.757228 6.825464 2.647628 4.124926 -0.418474 3.028386 2.885115 -0.369527 -2.056961 1.477436 -6.587821 7.419929 5.954515 26.841606 6.693987 2.458570 19.205126 7.934775 8.881838 2.461511 -67.418633 33.860676 76.898155 50.967094 -7.526140 10.345324 0.672711 1.260289 22.588631 30.885769 21.346601 9.607101 -7.125000 0.000000 0.000000 17.372293 49.284691 24.562681 0.955382 0.389419 -0.871315 75.390495 -14.775406 -0.286612 -17.062145 22.489704 -2.666329 0.648014 0.640383 11.102695 0.908091 2.385127 15.632621 7.125000 0.000000 0.000000 13.700794 -24.916704 26.676353
